{"accessors": {"accessors_accessor_buffer_Cube_0": {"bufferView": "bufferViews_bufferView_buffer_Cube_0", "byteOffset": 0, "byteStride": 24, "componentType": 5126, "count": 24, "max": [1.0000004768371582, 1.0000003576278687, 1.0], "min": [-1.0000003576278687, -1.0000005960464478, -1.0], "name": "accessor_buffer_Cube_0", "type": "VEC3"}, "accessors_accessor_buffer_Cube_1": {"bufferView": "bufferViews_bufferView_buffer_Cube_0", "byteOffset": 12, "byteStride": 24, "componentType": 5126, "count": 24, "max": [1.0, 1.0, 1.0], "min": [-1.0, -1.0, -1.0], "name": "accessor_buffer_Cube_1", "type": "VEC3"}, "accessors_accessor_buffer_Cube_2": {"bufferView": "bufferViews_bufferView_buffer_Cube_1", "byteOffset": 0, "byteStride": 2, "componentType": 5123, "count": 36, "max": [23], "min": [0], "name": "accessor_buffer_Cube_2", "type": "SCALAR"}}, "asset": {"profile": {"api": "WebGL", "version": "1.0"}, "version": "1.0"}, "bufferViews": {"bufferViews_bufferView_buffer_Cube_0": {"buffer": "buffers_buffer_peep", "byteLength": 576, "byteOffset": 0, "name": "bufferView_buffer_Cube_0", "target": 34962}, "bufferViews_bufferView_buffer_Cube_1": {"buffer": "buffers_buffer_peep", "byteLength": 72, "byteOffset": 576, "name": "bufferView_buffer_Cube_1", "target": 34963}}, "buffers": {"buffers_buffer_peep": {"byteLength": 648, "name": "buffer_peep", "type": "arraybuffer", "uri": "buffer_peep.bin"}}, "cameras": {"cameras_Camera": {"name": "Camera", "perspective": {"aspectRatio": 1.703595982340029, "yfov": 0.5033799409866333, "zfar": 100.0, "znear": 0.10000000149011612}, "type": "perspective"}}, "glExtensionsUsed": [], "materials": {"materials_Material": {"name": "Material", "technique": "techniques_Material", "values": {"diffuse_color": [0.800000011920929, 0.800000011920929, 0.800000011920929], "diffuse_intensity": 0.800000011920929, "specular_color": [1.0, 1.0, 1.0], "specular_hardness": 50, "specular_intensity": 0.5}}}, "meshes": {"meshes_Cube": {"name": "Cube", "primitives": [{"attributes": {"NORMAL": "accessors_accessor_buffer_Cube_1", "POSITION": "accessors_accessor_buffer_Cube_0"}, "indices": "accessors_accessor_buffer_Cube_2", "material": "materials_Material", "mode": 4}]}}, "nodes": {"nodes_Camera": {"camera": "cameras_Camera", "name": "Camera", "rotation": [0.483536034822464, 0.20870360732078552, 0.33687159419059753, 0.7804827094078064], "scale": [1.0, 1.0, 1.0], "translation": [7.481131553649902, -6.5076398849487305, 5.34366512298584]}, "nodes_Cube": {"meshes": ["meshes_Cube"], "name": "Cube", "rotation": [0.0, 0.0, 0.0, 1.0], "scale": [1.0, 1.0, 1.0], "translation": [0.0, 0.0, 0.0]}, "nodes_Lamp": {"name": "Lamp", "rotation": [0.16907575726509094, 0.27217137813568115, 0.7558802962303162, 0.570947527885437], "scale": [1.0, 0.9999999403953552, 1.0], "translation": [4.076245307922363, 1.0054539442062378, 5.903861999511719]}, "nodes_Scene_root": {"children": ["nodes_Cube", "nodes_Lamp", "nodes_Camera"], "matrix": [-1.0, 0.0, 0.0, 0.0, 0.0, 0.0, 1.0, 0.0, 0.0, 1.0, 0.0, 0.0, 0.0, 0.0, 0.0, 1.0], "name": "Scene_root"}}, "programs": {"programs_Material": {"attributes": ["bl_Vertex", "bl_Normal"], "fragmentShader": "shaders_MaterialFS", "name": "Material", "vertexShader": "shaders_MaterialVS"}}, "samplers": {"samplers_default": {"name": "default"}}, "scene": "scenes_Scene", "scenes": {"scenes_Scene": {"extras": {"active_camera": "cameras_Camera", "background_color": [0.05087608844041824, 0.05087608844041824, 0.05087608844041824], "frames_per_second": 24}, "name": "Scene", "nodes": ["nodes___scene_root_0_"]}}, "shaders": {"shaders_MaterialFS": {"name": "MaterialFS", "type": 35632, "uri": "MaterialFS.glsl"}, "shaders_MaterialVS": {"name": "MaterialVS", "type": 35633, "uri": "MaterialVS.glsl"}}, "techniques": {"techniques_Material": {"attributes": {"bl_Normal": "bl_Normal", "bl_Vertex": "bl_Vertex"}, "name": "Material", "parameters": {"Lamp_color": {"type": 35665, "value": [1.0, 1.0, 1.0]}, "Lamp_distance": {"type": 5126, "value": 29.999982833862305}, "Lamp_dynco": {"node": "node_Lamp", "semantic": "MODELVIEW", "type": 35676}, "Lamp_energy": {"type": 5126, "value": 1.0}, "ambient_color": {"type": 35666, "value": [0.0, 0.0, 0.0]}, "bl_ModelViewMatrix": {"semantic": "MODELVIEW", "type": 35676}, "bl_Normal": {"semantic": "NORMAL", "type": 35665}, "bl_NormalMatrix": {"semantic": "MODELVIEWINVERSETRANSPOSE", "type": 35675}, "bl_ProjectionMatrix": {"semantic": "PROJECTION", "type": 35676}, "bl_Vertex": {"semantic": "POSITION", "type": 35666}, "diffuse_color": {"type": 35665, "value": [0.800000011920929, 0.800000011920929, 0.800000011920929]}, "diffuse_intensity": {"type": 5126, "value": 0.800000011920929}, "mist_color": {"type": 35666, "value": [0.05087608844041824, 0.05087608844041824, 0.05087608844041824]}, "mist_depth": {"type": 5126, "value": 25.0}, "mist_falloff": {"type": 5126, "value": null}, "mist_intensity": {"type": 5126, "value": null}, "mist_start": {"type": 5126, "value": 5.0}, "mist_use_mist": {"type": 5126, "value": null}, "specular_color": {"type": 35665, "value": [1.0, 1.0, 1.0]}, "specular_hardness": {"type": 5126, "value": 50}, "specular_intensity": {"type": 5126, "value": 0.5}, "unf70": {"type": 35665, "value": null}}, "program": "programs_Material", "uniforms": {"bl_ModelViewMatrix": "bl_ModelViewMatrix", "bl_NormalMatrix": "bl_NormalMatrix", "bl_ProjectionMatrix": "bl_ProjectionMatrix", "light0_transform": "Lamp_dynco", "unf1": "diffuse_color", "unf15": "Lamp_distance", "unf25": "diffuse_intensity", "unf27": "Lamp_energy", "unf28": "Lamp_color", "unf48": "specular_hardness", "unf51": "specular_intensity", "unf57": "specular_color", "unf68": "ambient_color", "unf70": "unf70", "unf81": "mist_use_mist", "unf82": "mist_start", "unf83": "mist_depth", "unf84": "mist_falloff", "unf85": "mist_intensity", "unf89": "mist_color"}}}, "textures": {"textures_Tex": {"name": "Tex"}}}