# Blender v2.78 (sub 0) OBJ File: 'plant.blend'
# www.blender.org
mtllib pig.mtl
o Cube
v -0.000000 0.167116 -0.659652
v 0.387733 0.167116 -0.533669
v 0.000000 -0.851869 -0.474837
v -0.000000 -0.068044 -0.659652
v 0.279102 -0.851869 -0.384151
v 0.387733 -0.068044 -0.533669
v 0.451597 -0.851869 -0.146733
v 0.627366 -0.068044 -0.203844
v 0.451597 -0.851869 0.146733
v 0.627366 -0.068044 0.203844
v 0.279102 -0.851869 0.384151
v 0.387733 -0.068044 0.533669
v -0.000000 -0.851869 0.474837
v -0.000000 -0.068044 0.659652
v -0.279102 -0.851869 0.384151
v -0.387734 -0.068044 0.533669
v -0.451597 -0.851869 0.146733
v -0.627366 -0.068044 0.203844
v -0.451597 -0.851869 -0.146733
v -0.627366 -0.068044 -0.203844
v -0.279102 -0.851869 -0.384151
v -0.387733 -0.068044 -0.533670
v 0.627366 0.167116 -0.203844
v 0.627366 0.167116 0.203844
v 0.387733 0.167116 0.533669
v -0.000000 0.167116 0.659652
v -0.387734 0.167116 0.533669
v -0.627366 0.167116 0.203844
v -0.627366 0.167116 -0.203844
v -0.387733 0.167116 -0.533670
v 0.729425 0.178911 0.237005
v 0.729425 -0.079838 0.237005
v 0.729425 -0.079838 -0.237005
v 0.729425 0.178911 -0.237005
v 0.000000 0.178911 -0.766963
v -0.450809 0.178911 -0.620486
v -0.729425 0.178911 -0.237005
v 0.450810 -0.079838 -0.620486
v -0.000000 -0.079838 -0.766963
v -0.000000 0.178911 0.766963
v -0.000000 -0.079838 0.766963
v -0.729425 0.178911 0.237005
v 0.450810 -0.079838 0.620486
v 0.450810 0.178911 0.620486
v -0.450810 0.178911 0.620486
v -0.729425 -0.079838 0.237005
v -0.450810 -0.079838 0.620486
v -0.729425 -0.079838 -0.237005
v 0.450810 0.178911 -0.620486
v -0.450809 -0.079838 -0.620486
v -0.000000 0.030946 -0.659652
v -0.387733 0.030946 -0.533670
v -0.627366 0.030946 -0.203844
v -0.627366 0.030946 0.203844
v -0.387734 0.030946 0.533669
v -0.000000 0.030946 0.659652
v 0.387733 0.030946 0.533669
v 0.627366 0.030946 0.203844
v 0.627366 0.030946 -0.203844
v 0.387733 0.030946 -0.533669
v -0.549963 -0.117519 -0.173763
v -0.317813 -0.361602 -0.103461
v -0.000505 -0.451710 -0.005436
v -0.344434 -0.115300 -0.464198
v -0.199151 -0.360321 -0.271143
v -0.007440 -0.114622 -0.578363
v -0.004587 -0.359929 -0.337056
v 0.332299 -0.115745 -0.472651
v 0.191561 -0.360578 -0.276024
v 0.545015 -0.118239 -0.187441
v 0.314373 -0.362017 -0.111358
v 0.549457 -0.121152 0.168327
v 0.316938 -0.363699 0.094045
v 0.343929 -0.123371 0.458761
v 0.198276 -0.364980 0.261727
v 0.006935 -0.124048 0.572927
v 0.003712 -0.365371 0.327641
v -0.332804 -0.122926 0.467215
v -0.192436 -0.364723 0.266608
v -0.545520 -0.120432 0.182005
v -0.315248 -0.363283 0.101942
v 0.016172 1.205396 -0.081541
v 0.060313 1.205396 -0.056056
v 0.016171 -0.001651 -0.081541
v 0.016171 1.086131 -0.081541
v 0.060313 -0.001651 -0.056056
v 0.060313 1.107528 -0.056056
v 0.060313 -0.001651 -0.005087
v 0.060313 1.107528 -0.005087
v 0.016171 -0.001651 0.020398
v 0.016171 1.086131 0.020398
v -0.027970 -0.001651 -0.005087
v -0.027970 1.086131 -0.005087
v -0.027970 -0.001651 -0.056056
v -0.027970 1.086131 -0.056056
v 0.060313 1.205396 -0.005087
v 0.016172 1.205396 0.020398
v -0.027970 1.205396 -0.005087
v -0.027970 1.205396 -0.056056
v 0.173857 1.290455 -0.005087
v 0.173857 1.086131 -0.005087
v 0.173857 1.086131 -0.056056
v 0.173857 1.290455 -0.056056
v 0.250165 1.255015 -0.013927
v 0.250165 1.121571 -0.013927
v 0.250165 1.121571 -0.047216
v 0.250165 1.255015 -0.047216
v -0.027970 1.201642 -0.056056
v -0.027970 1.201642 -0.005087
v -0.027970 1.110571 -0.056056
v -0.027970 1.110571 -0.005087
v -0.141662 1.290455 -0.056056
v -0.141662 1.290455 -0.005087
v -0.141662 1.086131 -0.056056
v -0.141662 1.086131 -0.005087
v -0.209994 1.256610 -0.047614
v -0.209994 1.256610 -0.013529
v -0.209994 1.119976 -0.047614
v -0.209994 1.119976 -0.013529
vn 0.3090 0.0000 -0.9511
vn -0.0929 -0.9934 0.0675
vn 0.3015 -0.2188 -0.9280
vn 0.8090 0.0000 -0.5878
vn 0.0355 0.9934 0.1092
vn 0.7894 -0.2188 -0.5735
vn -0.8090 0.0000 0.5878
vn -0.0929 0.9934 0.0675
vn 0.9758 -0.2188 0.0000
vn 0.3090 0.0000 0.9511
vn -0.0355 0.9934 -0.1092
vn 0.7894 -0.2188 0.5735
vn 1.0000 0.0000 0.0000
vn 0.1148 0.9934 0.0000
vn 0.3015 -0.2188 0.9280
vn -1.0000 0.0000 0.0000
vn 0.0929 -0.9934 0.0675
vn -0.3015 -0.2188 0.9280
vn -0.3090 0.0000 0.9511
vn 0.0355 -0.9934 -0.1092
vn -0.7894 -0.2188 0.5735
vn -0.1148 -0.9934 0.0000
vn -0.9758 -0.2188 0.0000
vn -0.0355 0.9934 0.1092
vn -0.3015 -0.2188 -0.9280
vn -0.7894 -0.2188 -0.5735
vn -0.8090 0.0000 -0.5878
vn -0.0929 0.9934 -0.0675
vn 0.0000 -1.0000 0.0000
vn -0.3090 0.0000 -0.9511
vn 0.8090 0.0000 0.5878
vn -0.0355 -0.9934 -0.1092
vn 0.1148 -0.9934 0.0000
vn 0.0929 0.9934 0.0675
vn 0.0355 -0.9934 0.1092
vn -0.0355 -0.9934 0.1092
vn 0.0355 0.9934 -0.1092
vn -0.1148 0.9934 0.0000
vn -0.0929 -0.9934 -0.0675
vn 0.0929 -0.9934 -0.0675
vn 0.0929 0.9934 -0.0675
vn -0.5920 -0.6853 -0.4242
vn -0.2330 -0.6833 -0.6919
vn 0.2148 -0.6836 -0.6975
vn 0.5803 -0.6860 -0.4388
vn 0.7240 -0.6896 -0.0147
vn 0.5910 -0.6930 0.4129
vn 0.2320 -0.6949 0.6806
vn -0.2158 -0.6946 0.6862
vn -0.5814 -0.6922 0.4276
vn -0.7251 -0.6887 0.0034
vn -0.2719 -0.9623 -0.0045
vn -0.2221 -0.9610 -0.1645
vn -0.0877 -0.9603 -0.2647
vn 0.0798 -0.9604 -0.2668
vn 0.2167 -0.9613 -0.1700
vn 0.2704 -0.9627 -0.0113
vn 0.2206 -0.9639 0.1488
vn 0.0863 -0.9647 0.2490
vn -0.0813 -0.9646 0.2511
vn -0.2181 -0.9637 0.1542
vn 0.0000 1.0000 0.0000
vn 0.5000 -0.0000 0.8660
vn 0.5000 0.0000 -0.8660
vn -0.5000 0.0000 -0.8660
vn 0.0000 0.0000 -1.0000
vn -0.5000 0.0000 0.8660
vn 0.4212 0.9070 0.0000
vn -0.1852 -0.9827 0.0000
vn -0.5996 0.8003 0.0000
vn 0.0000 0.0000 1.0000
vn 0.4212 -0.9070 0.0000
vn 0.1151 -0.0000 -0.9934
vn 0.1151 -0.0000 0.9934
vn -0.0139 0.0000 0.9999
vn -0.4438 -0.8961 0.0000
vn 0.6156 0.7881 0.0000
vn 0.2102 -0.9777 0.0000
vn -0.1226 0.0000 -0.9925
vn -0.1226 0.0000 0.9925
vn -0.4438 0.8961 0.0000
usemtl Material.001
s off
f 38//1 39//1 35//1 49//1
f 8//2 6//2 38//2 33//2
f 3//3 4//3 6//3 5//3
f 33//4 38//4 49//4 34//4
f 30//5 1//5 35//5 36//5
f 5//6 6//6 8//6 7//6
f 46//7 47//7 45//7 42//7
f 2//8 23//8 34//8 49//8
f 7//9 8//9 10//9 9//9
f 41//10 43//10 44//10 40//10
f 25//11 26//11 40//11 44//11
f 9//12 10//12 12//12 11//12
f 32//13 33//13 34//13 31//13
f 28//14 29//14 37//14 42//14
f 11//15 12//15 14//15 13//15
f 48//16 46//16 42//16 37//16
f 22//17 20//17 48//17 50//17
f 13//18 14//18 16//18 15//18
f 47//19 41//19 40//19 45//19
f 16//20 14//20 41//20 47//20
f 15//21 16//21 18//21 17//21
f 10//22 8//22 33//22 32//22
f 28//4 27//4 55//4 54//4
f 17//23 18//23 20//23 19//23
f 1//24 2//24 49//24 35//24
f 21//25 22//25 4//25 3//25
f 19//26 20//26 22//26 21//26
f 50//27 48//27 37//27 36//27
f 24//28 25//28 44//28 31//28
f 3//29 5//29 7//29 9//29 11//29 13//29 15//29 17//29 19//29 21//29
f 39//30 50//30 36//30 35//30
f 43//31 32//31 31//31 44//31
f 14//32 12//32 43//32 41//32
f 20//33 18//33 46//33 48//33
f 29//34 30//34 36//34 37//34
f 4//35 22//35 50//35 39//35
f 6//36 4//36 39//36 38//36
f 26//37 27//37 45//37 40//37
f 23//38 24//38 31//38 34//38
f 12//39 10//39 32//39 43//39
f 18//40 16//40 47//40 46//40
f 27//41 28//41 42//41 45//41
f 23//7 2//7 60//7 59//7
f 25//27 24//27 58//27 57//27
f 1//10 30//10 52//10 51//10
f 27//1 26//1 56//1 55//1
f 29//13 28//13 54//13 53//13
f 30//31 29//31 53//31 52//31
f 2//19 1//19 51//19 60//19
f 24//16 23//16 59//16 58//16
f 26//30 25//30 57//30 56//30
f 62//42 61//42 64//42 65//42
f 65//43 64//43 66//43 67//43
f 67//44 66//44 68//44 69//44
f 69//45 68//45 70//45 71//45
f 71//46 70//46 72//46 73//46
f 73//47 72//47 74//47 75//47
f 75//48 74//48 76//48 77//48
f 77//49 76//49 78//49 79//49
f 79//50 78//50 80//50 81//50
f 81//51 80//51 61//51 62//51
f 63//52 81//52 62//52
f 63//53 62//53 65//53
f 63//54 65//54 67//54
f 63//55 67//55 69//55
f 63//56 69//56 71//56
f 63//57 71//57 73//57
f 63//58 73//58 75//58
f 63//59 75//59 77//59
f 63//60 77//60 79//60
f 63//61 79//61 81//61
usemtl Material.002
f 60//62 51//62 52//62 53//62 54//62 55//62 56//62 57//62 58//62 59//62
usemtl Material.003
f 91//63 89//63 96//63 97//63
f 84//64 85//64 87//64 86//64
f 87//64 85//64 82//64 83//64
f 86//13 87//13 89//13 88//13
f 85//65 95//65 99//65 82//65
f 88//63 89//63 91//63 90//63
f 87//66 83//66 103//66 102//66
f 90//67 91//67 93//67 92//67
f 98//16 99//16 108//16 109//16
f 83//62 82//62 99//62 98//62 97//62 96//62
f 92//16 93//16 95//16 94//16
f 93//67 91//67 97//67 98//67
f 94//65 95//65 85//65 84//65
f 84//29 86//29 88//29 90//29 92//29 94//29
f 103//68 100//68 104//68 107//68
f 89//69 87//69 102//69 101//69
f 83//70 96//70 100//70 103//70
f 96//71 89//71 101//71 100//71
f 105//13 106//13 107//13 104//13
f 101//72 102//72 106//72 105//72
f 102//73 103//73 107//73 106//73
f 100//74 101//74 105//74 104//74
f 111//71 109//71 113//71 115//71
f 95//16 93//16 111//16 110//16
f 99//66 95//66 110//66 108//66
f 93//75 98//75 109//75 111//75
f 114//76 115//76 119//76 118//76
f 109//77 108//77 112//77 113//77
f 110//78 111//78 115//78 114//78
f 108//66 110//66 114//66 112//66
f 118//16 119//16 117//16 116//16
f 112//79 114//79 118//79 116//79
f 115//80 113//80 117//80 119//80
f 113//81 112//81 116//81 117//81
